<svg height="512" viewBox="0 0 60 60" width="512" xmlns="http://www.w3.org/2000/svg"><path d="M47 9v14.26L22 45H4a3 3 0 0 1-3-3V9l1-1h44z" fill="#e1eeff"/><path d="M47 4v5H1V4a3 3 0 0 1 3-3h40a3 3 0 0 1 3 3z" fill="#49508e"/><path d="m50.951 46.71 7.171 7.17a3 3 0 0 1 0 4.24 2.995 2.995 0 0 1-4.241 0l-7.171-7.17z" fill="#a8724e"/><circle cx="37" cy="37" fill="#49508e" r="17"/><path d="M6 6H5a1 1 0 0 1 0-2h1a1 1 0 0 1 0 2zm5 0h-1a1 1 0 0 1 0-2h1a1 1 0 0 1 0 2zm5 0h-1a1 1 0 0 1 0-2h1a1 1 0 0 1 0 2z" fill="#fff"/><path d="M6 14H5a1 1 0 0 1 0-2h1a1 1 0 0 1 0 2zm0 4H5a1 1 0 0 1 0-2h1a1 1 0 0 1 0 2zm0 4H5a1 1 0 0 1 0-2h1a1 1 0 0 1 0 2zm0 4H5a1 1 0 0 1 0-2h1a1 1 0 0 1 0 2zm0 4H5a1 1 0 0 1 0-2h1a1 1 0 0 1 0 2zm0 4H5a1 1 0 0 1 0-2h1a1 1 0 0 1 0 2zm0 4H5a1 1 0 0 1 0-2h1a1 1 0 0 1 0 2zm0 4H5a1 1 0 0 1 0-2h1a1 1 0 0 1 0 2z" fill="#b1cbdd"/><path d="M43 6h-6a1 1 0 0 1 0-2h6a1 1 0 0 1 0 2z" fill="#2e3360"/><path d="M10 40a1 1 0 0 1-1-1V13a1 1 0 0 1 2 0v26a1 1 0 0 1-1 1z" fill="#b1cbdd"/><path d="M24 14H14a1 1 0 0 1 0-2h10a1 1 0 0 1 0 2zm2 4H16a1 1 0 0 1 0-2h10a1 1 0 0 1 0 2z" fill="#66caa4"/><path d="M33 18h-3a1 1 0 0 1 0-2h3a1 1 0 0 1 0 2z" fill="#f9c84e"/><path d="M24 22h-7a1 1 0 0 1 0-2h7a1 1 0 0 1 0 2z" fill="#66caa4"/><path d="M47 32h-2a1 1 0 0 1 0-2h2a1 1 0 0 1 0 2z" fill="#fff"/><path d="M31 32h-4a1 1 0 0 1 0-2h4a1 1 0 0 1 0 2z" fill="#f9c84e"/><path d="M22 30h-6a1 1 0 0 1 0-2h6a1 1 0 0 1 0 2z" fill="#66caa4"/><path d="M41 32h-6a1 1 0 0 1 0-2h6a1 1 0 0 1 0 2z" fill="#eb6374"/><path d="M37 36H25a1 1 0 0 1 0-2h12a1 1 0 0 1 0 2z" fill="#f9c84e"/><path d="M20.474 34H17a1 1 0 0 1 0-2h3.474a1 1 0 1 1 0 2z" fill="#66caa4"/><path d="M31 28h-1a1 1 0 0 1 0-2h1a1 1 0 0 1 0 2z" fill="#f9c84e"/><path d="M24.958 26H14a1 1 0 0 1 0-2h10.958a1 1 0 0 1 0 2z" fill="#66caa4"/><path d="M47 44h-2a1 1 0 0 1 0-2h2a1 1 0 0 1 0 2z" fill="#fff"/><path d="M31 44h-5a1 1 0 0 1 0-2h5a1 1 0 0 1 0 2z" fill="#f9c84e"/><path d="M20.474 42H16a1 1 0 0 1 0-2h4.474a1 1 0 1 1 0 2z" fill="#66caa4"/><path d="M41 44h-6a1 1 0 0 1 0-2h6a1 1 0 0 1 0 2z" fill="#eb6374"/><path d="M29 40h-4a1 1 0 0 1 0-2h4a1 1 0 0 1 0 2z" fill="#f9c84e"/><path d="M20 38h-6a1 1 0 0 1 0-2h6a1 1 0 0 1 0 2z" fill="#66caa4"/><path d="M37 55a18 18 0 1 1 18-18 18.021 18.021 0 0 1-18 18zm0-34a16 16 0 1 0 16 16 16.019 16.019 0 0 0-16-16z" fill="#c0daf0"/></svg>