<svg height="512" viewBox="0 0 53 53" width="512" xmlns="http://www.w3.org/2000/svg"><path d="M45.597 21.475v24.868c0 2.242-1.685 4.208-3.922 4.362a4.213 4.213 0 0 1-4.515-4.212V19.219h6.18a2.257 2.257 0 0 1 2.257 2.256z" fill="#fd982e"/><path d="M40.105 4.024v34.97c0 .96-.778 1.737-1.737 1.737H6.77c-.96 0-1.737-.778-1.737-1.738V4.023c0-.959.778-1.737 1.737-1.737h31.597c.96 0 1.737.778 1.737 1.738z" fill="#deddff"/><path d="M9.438 40.734h-2.67c-.96 0-1.73-.78-1.73-1.74V4.024c0-.96.77-1.74 1.73-1.74h2.67c-.96 0-1.74.78-1.74 1.74v34.97c0 .96.78 1.74 1.74 1.74z" fill="#c6c6f7"/><path d="M41.374 50.716H6.714A4.212 4.212 0 0 1 2.5 46.493V22.694c0-.96.778-1.738 1.738-1.738h12.378c.53 0 1.03.242 1.36.656l2.249 2.825c.33.414.83.655 1.36.655h13.837c.96 0 1.738.778 1.738 1.738v19.663a4.212 4.212 0 0 0 4.214 4.223z" fill="#fcb73e"/><path d="M10.903 50.716H6.717a4.209 4.209 0 0 1-4.215-4.22v-23.8c0-.96.778-1.738 1.738-1.738h4.186c-.959 0-1.738.778-1.738 1.738v23.8c0 2.35 1.893 4.22 4.215 4.22z" fill="#fd982e"/><path d="M50.5 38.388V48.62a2.095 2.095 0 0 1-2.095 2.095h-13.01a2.095 2.095 0 0 1-2.094-2.095V38.388c0-1.157.938-2.095 2.095-2.095h13.009c1.157 0 2.095.938 2.095 2.095z" fill="#65b9ff"/><path d="M39.264 50.716h-3.869a2.093 2.093 0 0 1-2.094-2.095V38.387c0-1.158.936-2.094 2.094-2.094h3.869a2.093 2.093 0 0 0-2.095 2.094v10.234c0 1.159.937 2.095 2.095 2.095z" fill="#3e7fff"/><path d="M48.323 36.293H46.27V33.14c0-2.41-1.96-4.37-4.37-4.37a4.375 4.375 0 0 0-4.37 4.37v3.152h-2.053V33.14a6.43 6.43 0 0 1 6.424-6.423 6.43 6.43 0 0 1 6.422 6.423z" fill="#5b5e8b"/><path d="M43.83 27.012a6.548 6.548 0 0 0-2.866 1.864 4.368 4.368 0 0 0-3.433 4.263v3.154h-2.054v-3.154a6.432 6.432 0 0 1 8.354-6.127zM43.816 42.1a1.9 1.9 0 0 1-.882 1.61v2.228a1.03 1.03 0 0 1-1.029 1.028h-.01a1.029 1.029 0 0 1-1.028-1.028v-2.237a1.87 1.87 0 0 1-.882-1.601c0-1.057.863-1.92 1.92-1.92 1.058 0 1.911.863 1.911 1.92z" fill="#312e4b"/><path d="M35.764 8.636a.66.66 0 0 1-.66.661H10.878a.66.66 0 1 1 0-1.322h24.224a.66.66 0 0 1 .66.661z" fill="#c6c6f7"/><path d="M14.669 9.296h-3.79a.66.66 0 1 1 0-1.321h3.79a.66.66 0 1 0 0 1.321z" fill="#b5b5ea"/><path d="M35.901 11.753a.66.66 0 0 1-.66.66H10.878a.66.66 0 1 1 0-1.322H35.24a.66.66 0 0 1 .661.662z" fill="#c6c6f7"/><path d="M14.669 12.413h-3.79a.66.66 0 1 1 0-1.322h3.79a.66.66 0 1 0 0 1.322z" fill="#b5b5ea"/><path d="M35.901 14.87a.66.66 0 0 1-.66.66H10.878a.66.66 0 1 1 0-1.322H35.24a.66.66 0 0 1 .661.662z" fill="#c6c6f7"/><path d="M14.669 15.53h-3.79a.66.66 0 1 1 0-1.322h3.79a.66.66 0 1 0 0 1.322z" fill="#b5b5ea"/><path d="M28.761 17.987a.66.66 0 0 1-.66.66H10.879a.66.66 0 1 1 0-1.322H28.1a.66.66 0 0 1 .66.662z" fill="#c6c6f7"/><path d="M14.669 18.647h-3.79a.66.66 0 1 1 0-1.322h3.79a.66.66 0 1 0 0 1.322z" fill="#b5b5ea"/><path d="M35.901 17.987a.66.66 0 0 1-.66.66h-3.973a.66.66 0 1 1 0-1.322h3.972a.66.66 0 0 1 .661.662z" fill="#c6c6f7"/><path d="M33.488 18.644h-2.22a.66.66 0 1 1 0-1.32h2.22a.66.66 0 1 0 0 1.32z" fill="#b5b5ea"/></svg>