<svg height="512" viewBox="0 0 48 48" width="512" xmlns="http://www.w3.org/2000/svg" xmlns:xlink="http://www.w3.org/1999/xlink" data-name="Layer 1"><linearGradient id="b" gradientUnits="userSpaceOnUse" x1="24" x2="24" y1="4.274" y2="30.545"><stop offset="0" stop-color="#fd9b02"/><stop offset="1" stop-color="#ff7302"/></linearGradient><linearGradient id="c" gradientUnits="userSpaceOnUse" x1="24" x2="24" y1="6.108" y2="30.882"><stop offset="0" stop-color="#edf1f2"/><stop offset=".336" stop-color="#e9edee"/><stop offset=".636" stop-color="#dee2e3"/><stop offset=".921" stop-color="#ccd1d2"/><stop offset="1" stop-color="#c6cbcc"/></linearGradient><linearGradient id="d" gradientUnits="userSpaceOnUse" x1="16.755" x2="29.756" y1="9.755" y2="22.756"><stop offset="0" stop-color="#4793eb"/><stop offset="1" stop-color="#2367ec"/></linearGradient><linearGradient id="a" gradientUnits="userSpaceOnUse" x1="-6.372" x2="34.443" y1="-3.856" y2="42.463"><stop offset="0" stop-color="#fed200"/><stop offset="1" stop-color="#f59815"/></linearGradient><linearGradient id="e" x1="15.463" x2="35.412" xlink:href="#a" y1="28.773" y2="62.365"/><path d="M40 46H8c-2.757 0-5-2.243-5-5V19.8c0-1.527.684-2.95 1.876-3.904l16-12.8a4.97 4.97 0 0 1 6.247 0l16 12.8a4.975 4.975 0 0 1 1.876 3.904V41c0 2.757-2.243 5-5 5z" fill="url(#b)"/><path d="M39 38H9a1 1 0 0 1-1-1V9c0-1.654 1.346-3 3-3h26c1.654 0 3 1.346 3 3v28a1 1 0 0 1-1 1z" fill="url(#c)"/><path d="M28.12 23.859a1 1 0 0 0-1.032-1.714 5.981 5.981 0 0 1-3.089.855c-3.309 0-6-2.691-6-6s2.691-6 6-6 6 2.691 6 6.028c-.005 1.069-.969 1.973-2.106 1.973a.94.94 0 0 1-.687-.295.936.936 0 0 1-.258-.701l.152-2.9c.028-.545-.171-1.085-.547-1.481s-.904-.623-1.45-.623h-.446c-2.453 0-4.554 1.993-4.682 4.451-.049.941.276 1.83.916 2.504a3.344 3.344 0 0 0 2.452 1.045c.91 0 1.752-.36 2.399-.937l.014.019a2.963 2.963 0 0 0 2.137.919h.001c2.254 0 4.096-1.778 4.106-4 0-4.411-3.589-8-8-8s-8 3.589-8 8 3.589 8 8 8c1.455 0 2.88-.395 4.12-1.141zm-3.145-6.411v.004c-.045.839-.792 1.547-1.632 1.547-.388 0-.744-.15-1.001-.421a1.373 1.373 0 0 1-.369-1.031C22.045 16.166 23.275 15 24.658 15h.446l-.128 2.448z" fill="url(#d)"/><path d="M27.125 31.912a5.031 5.031 0 0 1-6.25 0L3.376 17.911A5 5 0 0 0 3 19.8V41c0 2.757 2.243 5 5 5h32c2.757 0 5-2.243 5-5V19.8a5 5 0 0 0-.376-1.889z" fill="url(#a)"/><path d="M27.125 29.22a5.031 5.031 0 0 0-6.25 0L3.493 43.127C4.295 44.819 6.007 46 8 46h32c1.993 0 3.705-1.181 4.507-2.873z" fill="url(#e)"/></svg>