<svg clip-rule="evenodd" fill-rule="evenodd" stroke-linejoin="round" stroke-miterlimit="2" viewBox="0 0 96 96" xmlns="http://www.w3.org/2000/svg"><path d="M96 6c0-1.591-.63-3.117-1.76-4.243A5.988 5.988 0 0 0 90 0H44c-1.59 0-3.12.632-4.24 1.757A5.985 5.985 0 0 0 38 6v46c0 1.591.63 3.117 1.76 4.243A5.988 5.988 0 0 0 44 58h46c1.59 0 3.12-.632 4.24-1.757A5.985 5.985 0 0 0 96 52z" fill="#c3e5db"/><path d="M96 18.172 56.17 58H90c1.59 0 3.12-.632 4.24-1.757A5.985 5.985 0 0 0 96 52z" fill="#28a851"/><circle cx="104.5" cy="55.5" fill="#fffef1" r="7.5" transform="matrix(.8 0 0 .8 -3.6 -30.4)"/><path d="M38 38.172V52c0 1.591.63 3.117 1.76 4.243A5.988 5.988 0 0 0 44 58h46c1.59 0 3.12-.632 4.24-1.757A5.985 5.985 0 0 0 96 52v-3.828L66.83 19a6.831 6.831 0 0 0-9.66 0z" fill="#2abd59"/><path d="M58 44c0-1.591-.63-3.117-1.76-4.243A5.988 5.988 0 0 0 52 38H6c-1.59 0-3.12.632-4.24 1.757A5.985 5.985 0 0 0 0 44v46c0 1.591.63 3.117 1.76 4.243A5.988 5.988 0 0 0 6 96h46c1.59 0 3.12-.632 4.24-1.757A5.985 5.985 0 0 0 58 90z" fill="#f9f7c2"/><path d="M27 52v32c0 1.104.9 2 2 2s2-.896 2-2V52h12c0 1.104.9 2 2 2s2-.896 2-2v-2c0-1.105-.89-2-2-2H13c-1.11 0-2 .895-2 2v2c0 1.104.9 2 2 2s2-.896 2-2z" fill="#aaa870"/><path d="M28.18 7.013C14.21 7.444 3 18.923 3 33c0 1.104.9 2 2 2s2-.896 2-2c0-11.859 9.4-21.539 21.16-21.984l-3.57 3.57c-.79.78-.79 2.048 0 2.828a1.99 1.99 0 0 0 2.82 0l7-7c.79-.781.79-2.047 0-2.828l-7-7a1.99 1.99 0 0 0-2.82 0c-.79.78-.79 2.048 0 2.828zm39.66 77.971 3.57-3.57c.79-.78.79-2.048 0-2.828a1.99 1.99 0 0 0-2.82 0l-7 7a1.984 1.984 0 0 0 0 2.828l7 7a1.99 1.99 0 0 0 2.82 0c.79-.78.79-2.048 0-2.828l-3.59-3.599C81.79 88.556 93 77.077 93 63c0-1.104-.9-2-2-2s-2 .896-2 2c0 11.859-9.4 21.539-21.16 21.984z" fill="#5e696f"/></svg>