<svg height="512" viewBox="0 0 58 58" width="512" xmlns="http://www.w3.org/2000/svg"><g fill="none"><path d="M39 22v-6c0-5.523-4.477-10-10-10s-10 4.477-10 10v6h-6v-6c0-8.837 7.163-16 16-16s16 7.163 16 16v6z" fill="#95a5a5"/><path d="M8 47v7a4 4 0 0 0 4 4h34a4 4 0 0 0 4-4V26a4 4 0 0 0-4-4H12a4 4 0 0 0-4 4z" fill="#f3d55b"/><path d="M39 33h17a2.006 2.006 0 0 1 2 2v10a2.006 2.006 0 0 1-2 2H2a2.006 2.006 0 0 1-2-2V35a2.006 2.006 0 0 1 2-2z" fill="#9fc9d3"/><path d="M12 30a1 1 0 0 1-1-1v-3a1 1 0 0 1 1-1h3a1 1 0 0 1 0 2h-2v2a1 1 0 0 1-1 1z" fill="#f9eab0"/><path d="M10.832 37.445a1 1 0 0 0-1.387-.277L8 38.132V37a1 1 0 0 0-2 0v1.132l-1.445-.964a1 1 0 0 0-1.11 1.664L5.2 40l-1.755 1.168a1 1 0 0 0 1.11 1.664L6 41.868V43a1 1 0 0 0 2 0v-1.132l1.445.964a1 1 0 0 0 1.11-1.664L8.8 40l1.752-1.168a1 1 0 0 0 .28-1.387zm11 0a1 1 0 0 0-1.387-.277L19 38.132V37a1 1 0 0 0-2 0v1.132l-1.445-.964a1 1 0 0 0-1.11 1.664L16.2 40l-1.752 1.168a1 1 0 0 0 1.11 1.664L17 41.868V43a1 1 0 0 0 2 0v-1.132l1.445.964a1 1 0 0 0 1.11-1.664L19.8 40l1.752-1.168a1 1 0 0 0 .28-1.387zm22 0a1 1 0 0 0-1.387-.277L41 38.132V37a1 1 0 0 0-2 0v1.132l-1.445-.964a1 1 0 0 0-1.11 1.664L38.2 40l-1.752 1.168a1 1 0 0 0 1.11 1.664L39 41.868V43a1 1 0 0 0 2 0v-1.132l1.445.964a1 1 0 0 0 1.11-1.664L41.8 40l1.752-1.168a1 1 0 0 0 .28-1.387zm-11 0a1 1 0 0 0-1.387-.277L30 38.132V37a1 1 0 0 0-2 0v1.132l-1.445-.964a1 1 0 0 0-1.11 1.664L27.2 40l-1.752 1.168a1 1 0 0 0 1.11 1.664L28 41.868V43a1 1 0 0 0 2 0v-1.132l1.445.964a1 1 0 0 0 1.11-1.664L30.8 40l1.752-1.168a1 1 0 0 0 .28-1.387zM54 42h-6a1 1 0 0 0 0 2h6a1 1 0 0 0 0-2z" fill="#3b97d3"/></g></svg>