<svg height="512" width="512" xmlns="http://www.w3.org/2000/svg"><path d="M431 121.78v266.44c0 23.04-18.74 41.78-41.78 41.78H122.78C99.74 430 81 411.26 81 388.22V121.78C81 98.74 99.74 80 122.78 80h266.44C412.26 80 431 98.74 431 121.78z" fill="#ecf9fd"/><path d="M431 121.78v266.44c0 23.04-18.74 41.78-41.78 41.78H256V80h133.22C412.26 80 431 98.74 431 121.78z" fill="#d9f3fc"/><path d="M496 271H16c-19.844 0-19.85-30 0-30h480c19.844 0 19.85 30 0 30z" fill="#58b354"/><path d="M496 271H256v-30h240c19.844 0 19.85 30 0 30z" fill="#00a963"/><path d="M482 127V55.341C482 41.368 470.632 30 456.66 30H385c-19.832 0-19.86-30 0-30h71.66C487.174 0 512 24.826 512 55.341V127c0 19.832-30 19.86-30 0zm-25.34 385H385c-19.832 0-19.86-30 0-30h71.66c13.973 0 25.34-11.368 25.34-25.341V385c0-19.832 30-19.86 30 0v71.659C512 487.174 487.174 512 456.66 512z" fill="#001737"/><path d="M0 127V55.341C0 24.826 24.826 0 55.34 0H127c19.832 0 19.86 30 0 30H55.34C41.368 30 30 41.368 30 55.341V127c0 19.832-30 19.86-30 0zm127 385H55.34C24.826 512 0 487.174 0 456.659V385c0-19.832 30-19.86 30 0v71.659C30 470.632 41.368 482 55.34 482H127c19.832 0 19.86 30 0 30z" fill="#00357b"/><path d="M389.218 430h-47.575c-19.832 0-19.86-30 0-30h47.575c6.497 0 11.782-5.285 11.782-11.782v-47.574c0-19.832 30-19.86 30 0v47.574C431 411.257 412.256 430 389.218 430zM401 169.356v-47.574c0-6.497-5.286-11.782-11.782-11.782h-47.575c-19.832 0-19.86-30 0-30h47.575C412.256 80 431 98.743 431 121.782v47.574c0 19.832-30 19.86-30 0z" fill="#001737"/><path d="M81 169.356v-47.574C81 98.743 99.744 80 122.782 80h47.575c19.832 0 19.86 30 0 30h-47.575c-6.497 0-11.782 5.285-11.782 11.782v47.574c0 19.832-30 19.86-30 0zM170.357 430h-47.575C99.744 430 81 411.257 81 388.218v-47.574c0-19.832 30-19.86 30 0v47.574c0 6.497 5.286 11.782 11.782 11.782h47.575c19.832 0 19.86 30 0 30z" fill="#00357b"/></svg>