<svg height="512pt" viewBox="0 0 512 512" width="512pt" xmlns="http://www.w3.org/2000/svg"><linearGradient id="a" gradientUnits="userSpaceOnUse" x1="256" x2="256" y1="0" y2="512"><stop offset="0" stop-color="#2af598"/><stop offset="1" stop-color="#009efd"/></linearGradient><path d="M256 60v40h-40V60zm-40 235v57h40v-57zm120 217v-40h-40v-40h-40v80zm80-297H296v40h120zm0 80h56v-40h-56zm0 57v40h96v-97h-40v57zM296 0h-40v60h40zm-40 180h40v-80h-40v40h-40v115h40zM0 215v80h40v-40h60v-40zm296 80v-40h-40v40zm80 40h40v-40h-40zm96-80h40v-40h-40zm-136 40h-40v57h-40v40h80zM216 432h40v-40h-40zm120-40v40h80v-40zm120 80v-40h-40v40zm56 40v-40h-56v40zm-136 0h40v-40h-40zM180 255v-40h-40v40h-40v40h116v-40zm0-75H0V0h180zM140 40H40v100h100zm-30 30H70v40h40zM512 0v180H332V0zm-40 40H372v100h100zm-30 30h-40v40h40zM0 332h180v180H0zm40 140h100V372H40zm30-30h40v-40H70zm0 0" fill="url(#a)"/></svg>