<svg height="512pt" viewBox="0 -16 512 512" width="512pt" xmlns="http://www.w3.org/2000/svg"><path d="M512 360 366.098 250.5 352 240v74.398c-47.7-5.097-69.602-33.597-92.102-63.898-.296-.602-.898-.898-1.199-1.5l-45-60.3C154.602 109.5 117 75 15 75H0v90h15c69.3 0 101.5 42.598 131.5 83.7.3.6.898 1.198 1.2 1.8h.3c9.3 12.898 18.602 25.5 28.5 35.398 45 74.102 103.8 113.704 175.5 118.5V480zm0 0" fill="#43a2dd"/><path d="M352 480v-75.602c-71.7-4.796-130.5-44.398-175.5-118.5-9.898-9.898-19.2-22.5-28.5-35.398h111.898c22.5 30.3 44.403 58.8 92.102 63.898V240l14.098 10.5L512 360zm0 0" fill="#1789c9"/><path d="M258.402 250.5C217.301 316.8 152.7 405 15 405H0v-90h15c63.3 0 103-27.898 132.7-64.5zm0 0"/><path d="M512 120 352 0v75.598c-62.402 4.504-114.602 37.5-151.8 96.3l-10.802 17.704c-13.199 20.699-26.101 42-41.699 60.898C118 287.102 78.301 315 15 315H0v90h15c137.7 0 202.3-88.2 243.402-154.5 3.297-5.102 6.297-10.2 9.297-15l9.903-16.2C297.699 187.8 322 170.399 352 165.899V240zm0 0" fill="#99d6ff"/><path d="M258.402 250.5C217.301 316.8 152.7 405 15 405H0v-90h15c63.3 0 103-27.898 132.7-64.5zm0 0" fill="#78b9eb"/></svg>