<svg height="512" width="512" xmlns="http://www.w3.org/2000/svg"><g data-name="Layer 2"><g data-name="Document File Format"><path d="M456 127v360a25 25 0 0 1-25 25H81a25 25 0 0 1-25-25V25A25 25 0 0 1 81 0h248z" fill="#41a5ee"/><rect fill="#07c" height="200" rx="25" width="512" y="240"/><path d="M456 126.96H329.04V0zM135.71 417.31q-15.81 0-24.73-5.18A27.8 27.8 0 0 1 98.48 397q-3.57-9.94-3.57-24.4v-95H125v99.62a54 54 0 0 0 .68 8.5 13.93 13.93 0 0 0 3 7q2.29 2.71 7.05 2.72 4.93 0 7.14-2.72a13.88 13.88 0 0 0 2.81-7 62.16 62.16 0 0 0 .59-8.5v-99.65h30.26v95q0 14.46-3.65 24.4a28.32 28.32 0 0 1-12.5 15.13q-8.86 5.2-24.67 5.21zm72.59-2.04V300.18h-20.74v-22.61h71.91v22.61H238.9v115.09zm63.24 0v-137.7H331v20.57h-29v34.68h25.3v21.25H302v61.2zm107.78 2.21q-13.94 0-22.27-5.52a30.37 30.37 0 0 1-11.9-15.3 65 65 0 0 1-3.57-22.36 63.52 63.52 0 0 1 1.1-9.94 38.47 38.47 0 0 1 2.89-9 27.7 27.7 0 0 1 4.93-7.36 25.07 25.07 0 0 1 7.06-5.19 34.47 34.47 0 0 1-9.35-11.3q-4.08-7.4-4.42-18.79-.18-11.56 3.82-19.89a28.15 28.15 0 0 1 12-12.75q8-4.41 19.72-4.42 11.9 0 19.8 4.51A28.29 28.29 0 0 1 410.94 293q3.9 8.24 3.57 19.8-.18 11.57-4.08 19a30.29 30.29 0 0 1-9.35 11.13 24.88 24.88 0 0 1 7.05 5.19 27.23 27.23 0 0 1 4.93 7.31 40.55 40.55 0 0 1 3 9 48.1 48.1 0 0 1 1 9.94 58.83 58.83 0 0 1-3.32 22.36 30.79 30.79 0 0 1-12 15.3q-8.31 5.45-22.42 5.45zm0-20.91q4.59 0 6.63-3.4a19.62 19.62 0 0 0 2.55-8.07 79.72 79.72 0 0 0 .51-8.59 67 67 0 0 0-.43-10.2 18.75 18.75 0 0 0-2.63-8.07q-2-3.15-6.63-3.15-4.43 0-6.46 3.15a18.75 18.75 0 0 0-2.64 8 85.86 85.86 0 0 0-.59 10.28 81.88 81.88 0 0 0 .51 8.67 18.51 18.51 0 0 0 2.63 8.08 7.23 7.23 0 0 0 6.55 3.3zm0-63.92a5.87 5.87 0 0 0 4.76-2.29 15.9 15.9 0 0 0 2.8-6.89 57.72 57.72 0 0 0 .94-11.39q0-7-2.13-11.05a6.81 6.81 0 0 0-6.37-4.08 7.18 7.18 0 0 0-6.55 4.08q-2.29 4.08-2.29 10.88a60 60 0 0 0 .93 11.48 14.87 14.87 0 0 0 3 7 6.35 6.35 0 0 0 4.91 2.26z" fill="#d8efff"/></g></g></svg>