<svg viewBox="0 0 48 48" xmlns="http://www.w3.org/2000/svg"><path d="M1.5 1.5h14.2v14.2H1.5z" fill="#ffc861"/><path d="M5.6 5.6h5.9v5.9H5.6z" fill="#fff"/><path d="M32.3 1.5h14.2v14.2H32.3z" fill="#6fc882"/><path d="M36.4 5.6h5.9v5.9h-5.9z" fill="#fff"/><path d="M1.5 32.3h14.2v14.2H1.5z" fill="#fc6f68"/><path d="M5.6 36.4h5.9v5.9H5.6z" fill="#fff"/><path d="M32.3 32.3h14.2v14.2H32.3z" fill="#7ec4fc"/><path d="M36.4 36.4h5.9v5.9h-5.9z" fill="#fff"/><g fill="#2d4356"><path d="M.5 1.5v14.2c0 .6.4 1 1 1h14.2c.6 0 1-.4 1-1V1.5c0-.6-.4-1-1-1H1.5c-.6 0-1 .4-1 1zm2 1h12.2v12.2H2.5z"/><path d="M11.6 4.6h-6c-.6 0-1 .4-1 1v5.9c0 .6.4 1 1 1h5.9c.6 0 1-.4 1-1V5.6c.1-.5-.4-1-.9-1zm-1 6h-4v-4h3.9v4zM46.5.5H32.3c-.6 0-1 .4-1 1v14.2c0 .6.4 1 1 1h14.2c.6 0 1-.4 1-1V1.5c0-.6-.4-1-1-1zm-1 14.2H33.3V2.5h12.2z"/><path d="M36.4 12.6h5.9c.6 0 1-.4 1-1v-6c0-.6-.4-1-1-1h-5.9c-.6 0-1 .4-1 1v5.9c0 .6.5 1.1 1 1.1zm1-6h3.9v3.9h-3.9zM.5 46.5c0 .6.4 1 1 1h14.2c.6 0 1-.4 1-1V32.3c0-.6-.4-1-1-1H1.5c-.6 0-1 .4-1 1zm2-13.2h12.2v12.2H2.5z"/><path d="M11.6 35.4h-6c-.6 0-1 .4-1 1v5.9c0 .6.4 1 1 1h5.9c.6 0 1-.4 1-1v-5.9c.1-.5-.4-1-.9-1zm-1 6h-4v-3.9h3.9v3.9zm35.9-10.1H32.3c-.6 0-1 .4-1 1v14.2c0 .6.4 1 1 1h14.2c.6 0 1-.4 1-1V32.3c0-.6-.4-1-1-1zm-1 14.2H33.3V33.3h12.2z"/><path d="M36.4 43.4h5.9c.6 0 1-.4 1-1v-5.9c0-.6-.4-1-1-1h-5.9c-.6 0-1 .4-1 1v5.9c0 .5.5 1 1 1zm1-6h3.9v3.9h-3.9zm8.1-19.2h2v6.5h-2zm-2.7 10.6V18.2h-2v9.6h-5.4v2h6.4c.5 0 1-.4 1-1z"/><path d="M38 25.2v-3h-2v2h-4.6v2H37c.6 0 1-.5 1-1zm-6.7-5.9v2.9h2v-1.9H38v-2h-5.7c-.6 0-1 .5-1 1zm-16.6-1.1v7c0 .6.4 1 1 1H20v-2h-3.3v-6zm-14.2 0v3.5c0 .6.4 1 1 1h3.7v2c0 .6.4 1 1 1H11c.6 0 1-.4 1-1v-6.5h-2v5.5H7.2v-2c0-.6-.4-1-1-1H2.5v-2.5zm29.2 22.6h-7.9c-.6 0-1 .4-1 1v3.7h-2.5v2h3.5c.6 0 1-.4 1-1v-3.7h6.9zm-4-8.5V36h-7.4v2h8.4c.6 0 1-.4 1-1v-3.7h2v-2h-3c-.5 0-1 .4-1 1z"/><path d="M24 32.3V28h-2v3.3h-3.7v2H23c.6 0 1-.5 1-1zm-5.7-15.6H24v3.5h-3.9v2H25c.6 0 1-.4 1-1v-5.5c0-.6-.4-1-1-1h-6.6v2zm0-4.7h6.6c.6 0 1-.4 1-1V2.5h3.6v-2h-4.6c-.6 0-1 .4-1 1V10h-5.6z"/><path d="M18.3 5.2v2h2.8c.6 0 1-.4 1-1V1.5c0-.6-.4-1-1-1h-2.8v2h1.8v2.7zm27.2 21.5h2v3.1h-2zM24.7 45.5h5v2h-5zM.5 28.8c0 .6.4 1 1 1h8.7v-2H2.5v-3.6h-2zm11.6-1h6.2v2h-6.2zM27.6 4.4h2V13h-2zm0 10.4h2v7.4h-2zm-5.5 9.4h7.4v2h-7.4zm3.7 3.6h7.4v2h-7.4z"/></g></svg>